Coordinates
version=1
nRows=32
nColumns=22
inDegrees=yes

Units are S.I. units (second, meters, Newtons, ...)
If the header above contains a line with 'inDegrees', this indicates whether rotational values are in degrees (yes) or radians (no).

endheader
time	pelvis_tilt	pelvis_list	pelvis_rotation	pelvis_tx	pelvis_ty	pelvis_tz	hip_flexion_r	hip_adduction_r	hip_rotation_r	knee_angle_r	ankle_angle_r	subtalar_angle_r	hip_flexion_l	hip_adduction_l	hip_rotation_l	knee_angle_l	ankle_angle_l	subtalar_angle_l	lumbar_extension	lumbar_bending	lumbar_rotation
      2.56000000	     -6.28822391	     -4.25920425	    -20.04565268	     -0.36551506	      0.95828667	      0.30834576	      4.95470634	     15.32026765	     -3.77896148	    -17.53876759	     13.26806410	     -5.61212103	     26.53656014	     -9.86195204	     13.98755220	    -35.58075777	     11.99019594	     -0.77418436	     -0.11512530	      7.47177329	     -6.78458912
      2.57000000	     -6.34750417	     -4.07263214	    -20.83698689	     -0.35928510	      0.95761796	      0.31209498	      4.43347571	     15.24870074	     -2.99099401	    -17.51068128	     13.51871716	     -5.58669445	     27.02223564	     -9.52727317	     14.53390434	    -34.06060236	     11.38021287	     -0.36859065	     -0.07307133	      7.34974376	     -6.61078120
      2.58000000	     -6.40929769	     -3.89923739	    -21.60036425	     -0.35303504	      0.95690146	      0.31583107	      3.93212304	     15.17769273	     -2.23483572	    -17.50785539	     13.76591757	     -5.54900555	     27.48851109	     -9.21849131	     15.04603935	    -32.52271813	     10.64346966	     -0.01199749	     -0.03031832	      7.24662451	     -6.47271697
      2.59000000	     -6.46862424	     -3.74142830	    -22.34178746	     -0.34675411	      0.95615016	      0.31957614	      3.43336122	     15.10904699	     -1.50584224	    -17.51676960	     14.01412773	     -5.49233027	     27.92426170	     -8.94033884	     15.51610297	    -30.96527527	      9.81675300	      0.28795542	      0.00664647	      7.16024847	     -6.35502135
      2.60000000	     -6.52670542	     -3.60399626	    -23.05402959	     -0.34042314	      0.95537504	      0.32332542	      2.92685938	     15.04696240	     -0.80814334	    -17.52034482	     14.25549757	     -5.41260265	     28.32713117	     -8.69387655	     15.94906954	    -29.38952452	      8.94044762	      0.51305173	      0.03881906	      7.09604707	     -6.26224059
      2.61000000	     -6.58026835	     -3.48764118	    -23.73810139	     -0.33402122	      0.95458486	      0.32708367	      2.40178407	     14.98977740	     -0.14167776	    -17.51054869	     14.48598100	     -5.30560368	     28.69087842	     -8.47658638	     16.34408574	    -27.79955718	      8.07874966	      0.65425081	      0.06357002	      7.05361271	     -6.18628325
      2.62000000	     -6.63113710	     -3.39255968	    -24.39746781	     -0.32754883	      0.95378362	      0.33085858	      1.85991660	     14.93914691	      0.49406814	    -17.48945219	     14.69774952	     -5.17599790	     29.01136875	     -8.28830950	     16.70837957	    -26.19491931	      7.30369795	      0.71860956	      0.08167354	      7.03215184	     -6.12896690
      2.63000000	     -6.68210722	     -3.31374828	    -25.03685666	     -0.32099440	      0.95296686	      0.33464718	      1.31011557	     14.88961291	      1.10221441	    -17.46739716	     14.88143262	     -5.03980938	     29.29259456	     -8.12506221	     17.03584869	    -24.58422793	      6.68672022	      0.74628563	      0.09919090	      7.03050390	     -6.08997043
      2.64000000	     -6.73288816	     -3.24767100	    -25.66168170	     -0.31435167	      0.95213595	      0.33845998	      0.75284048	     14.83782017	      1.68768782	    -17.44515916	     15.04635874	     -4.89434919	     29.53085903	     -7.98306154	     17.32921346	    -22.97240086	      6.28159075	      0.78232340	      0.11750711	      7.04393660	     -6.05314610
      2.65000000	     -6.78375693	     -3.18574974	    -26.28495442	     -0.30762282	      0.95129010	      0.34231778	      0.19535434	     14.77525608	      2.26301352	    -17.43271510	     15.19056619	     -4.73801774	     29.72382700	     -7.85965122	     17.58456736	    -21.36332871	      6.09673384	      0.87604518	      0.14150068	      7.06431415	     -6.01263818
      2.66000000	     -6.83615660	     -3.12511039	    -26.91286470	     -0.30082637	      0.95042823	      0.34622521	     -0.35034085	     14.70227454	      2.84059546	    -17.44519896	     15.31326326	     -4.57186045	     29.87103318	     -7.75335832	     17.81652907	    -19.76381528	      6.10678844	      1.06323829	      0.17031511	      7.08953277	     -5.96405877
      2.67000000	     -6.88303928	     -3.06790163	    -27.55113104	     -0.29393963	      0.94955802	      0.35020296	     -0.89218694	     14.61468330	      3.41346584	    -17.48587257	     15.42741667	     -4.37291039	     29.95811269	     -7.66434596	     18.04809412	    -18.18523906	      6.28453969	      1.37748790	      0.19856346	      7.11719939	     -5.88712100
      2.68000000	     -6.93206199	     -3.01326234	    -28.21079516	     -0.28699106	      0.94867821	      0.35428155	     -1.42690022	     14.51859221	      4.00234708	    -17.54742403	     15.52826304	     -4.14094585	     29.99297918	     -7.60222032	     18.29335255	    -16.64397327	      6.52857416	      1.83162379	      0.23155070	      7.14765966	     -5.78235599
      2.69000000	     -6.99326617	     -2.96537811	    -28.89599165	     -0.28001611	      0.94777521	      0.35846779	     -1.92497679	     14.42967659	      4.63632067	    -17.66906902	     15.58536732	     -3.91844333	     29.99425749	     -7.57516887	     18.57440127	    -15.18093969	      6.76711196	      2.31683475	      0.27087583	      7.19108797	     -5.67830780
      2.70000000	     -7.05441855	     -2.93183396	    -29.59477056	     -0.27293957	      0.94686056	      0.36278934	     -2.42717500	     14.34160369	      5.25405048	    -17.80868980	     15.65204609	     -3.64381082	     29.95046404	     -7.57913381	     18.90126302	    -13.82997926	      7.01567169	      2.87972357	      0.31365316	      7.24542979	     -5.52873362
      2.71000000	     -7.13755441	     -2.91185698	    -30.32465564	     -0.26585012	      0.94591657	      0.36725903	     -2.88892376	     14.27632946	      5.92469729	    -18.00879902	     15.67064932	     -3.37331472	     29.90593757	     -7.62601459	     19.25284737	    -12.65598151	      7.20135252	      3.35080977	      0.36665285	      7.32061871	     -5.37301284
      2.72000000	     -7.23390606	     -2.90556475	    -31.07285323	     -0.25869073	      0.94495115	      0.37188448	     -3.32877507	     14.22477707	      6.59454629	    -18.25336995	     15.68838476	     -3.07366113	     29.85943423	     -7.70020790	     19.59711749	    -11.69545079	      7.35259128	      3.75262167	      0.43028892	      7.41061247	     -5.20085422
      2.73000000	     -7.32968758	     -2.90553955	    -31.84393003	     -0.25148490	      0.94397975	      0.37664909	     -3.74196445	     14.17602331	      7.29365434	    -18.56669998	     15.69388717	     -2.71335998	     29.82034641	     -7.77667646	     19.90408307	    -11.00905288	      7.49041852	      4.09250287	      0.48797152	      7.50254034	     -5.01740697
      2.74000000	     -7.44037540	     -2.90293035	    -32.63222033	     -0.24420625	      0.94298968	      0.38154189	     -4.11505193	     14.13034317	      8.00479503	    -18.93828347	     15.67414819	     -2.35051191	     29.80863362	     -7.84322372	     20.15607883	    -10.61066589	      7.59394623	      4.33371671	      0.56398318	      7.59928679	     -4.82233433
      2.75000000	     -7.52134009	     -2.89475620	    -33.42369926	     -0.23682716	      0.94203228	      0.38654903	     -4.48087343	     14.05622165	      8.70163194	    -19.37705506	     15.68591145	     -1.78444789	     29.77894701	     -7.86281739	     20.36641606	    -10.49919829	      7.65890238	      4.60718701	      0.61960942	      7.66660365	     -4.62190215
      2.76000000	     -7.62566449	     -2.86611905	    -34.22836460	     -0.22934214	      0.94106510	      0.39167605	     -4.79147582	     13.97697525	      9.41443490	    -19.86529384	     15.62581902	     -1.32247111	     29.76611515	     -7.85529203	     20.54967148	    -10.63014600	      7.64643221	      4.76181904	      0.72053685	      7.73253467	     -4.43295423
      2.77000000	     -7.71097283	     -2.81375040	    -35.02322420	     -0.22173070	      0.94013501	      0.39689290	     -5.07936238	     13.86405942	     10.10752064	    -20.40315034	     15.53363622	     -0.85907133	     29.72724291	     -7.78613036	     20.77430578	    -10.97580716	      7.51469942	      4.86342798	      0.82937700	      7.76353455	     -4.25224803
      2.78000000	     -7.78893146	     -2.72759032	    -35.80409119	     -0.21398658	      0.93924477	      0.40219226	     -5.32283098	     13.71946006	     10.77590431	    -20.99230401	     15.36875548	     -0.55354654	     29.66884395	     -7.65592681	     21.08027105	    -11.49242618	      7.21905137	      4.88761549	      0.96923291	      7.76155631	     -4.08897854
      2.79000000	     -7.82892006	     -2.60106226	    -36.53592063	     -0.20609424	      0.93845247	      0.40753750	     -5.52604107	     13.51556100	     11.36831678	    -21.64977060	     15.21294762	      0.05550800	     29.55054481	     -7.43745512	     21.54069659	    -12.10267364	      6.65500758	      4.80994958	      1.12029032	      7.69578161	     -4.00680795
      2.80000000	     -7.85040187	     -2.41998358	    -37.21902361	     -0.19804233	      0.93774363	      0.41293353	     -5.66381137	     13.26159123	     11.89113985	    -22.37001859	     14.97165322	      0.53655524	     29.41523995	     -7.13185148	     22.15831192	    -12.80021374	      5.88854487	      4.62986717	      1.31765693	      7.57034518	     -3.96845447
      2.81000000	     -7.84067008	     -2.19891973	    -37.84769604	     -0.18985710	      0.93716498	      0.41838957	     -5.74871259	     12.96369060	     12.33786664	    -23.15497260	     14.65486434	      1.06613511	     29.26988325	     -6.74743033	     22.87308801	    -13.58249213	      4.95667146	      4.36238502	      1.53849822	      7.38478983	     -3.98928080
      2.82000000	     -7.78828974	     -1.93457714	    -38.42133742	     -0.18155959	      0.93672491	      0.42390567	     -5.75886366	     12.61603817	     12.67520193	    -24.04852510	     14.26827966	      1.59709615	     29.15937459	     -6.27729688	     23.53146537	    -14.49720624	      3.96642894	      4.11418882	      1.77306377	      7.12895862	     -4.07539397
      2.83000000	     -7.70272664	     -1.65837113	    -38.94467345	     -0.17315196	      0.93646954	      0.42953026	     -5.72015655	     12.25075488	     12.93741150	    -25.02166743	     13.75714636	      2.30909547	     29.07519312	     -5.76852220	     24.08376704	    -15.51944169	      3.07025629	      3.88201827	      2.01263778	      6.83200248	     -4.20307906
      2.84000000	     -7.57084850	     -1.37904018	    -39.42310190	     -0.16466821	      0.93641503	      0.43527054	     -5.62796343	     11.86691058	     13.09904672	    -26.10269405	     13.10517675	      3.14486079	     29.01703857	     -5.23506995	     24.41651403	    -16.65160556	      2.37702186	      3.79231350	      2.23375644	      6.49051529	     -4.37194731
      2.85000000	     -7.39649651	     -1.12175797	    -39.86200295	     -0.15616343	      0.93657176	      0.44111391	     -5.47061030	     11.48419391	     13.13300627	    -27.32227190	     12.30603824	      4.14654539	     28.97510792	     -4.71472555	     24.47135040	    -17.87683343	      1.94857723	      3.85333994	      2.41456843	      6.12674035	     -4.57621151
      2.86000000	     -7.17815176	     -0.89633794	    -40.27463493	     -0.14768175	      0.93696181	      0.44707871	     -5.24570836	     11.10851601	     13.04776279	    -28.68898316	     11.31436132	      5.27623624	     28.89164757	     -4.24211624	     24.26601085	    -19.10195194	      1.80678339	      4.04351026	      2.54155094	      5.74689056	     -4.80190721
      2.87000000	     -6.93278689	     -0.70365131	    -40.66391581	     -0.13926942	      0.93756441	      0.45311633	     -4.92657882	     10.74494930	     12.83771547	    -30.21132931	     10.12461041	      6.56081115	     28.75089851	     -3.83252817	     23.85968107	    -20.27386997	      1.93795312	      4.30983868	      2.62167684	      5.36272803	     -5.02671983
